{"title":"The A word (2016) S01E01 x264 RB58","uid":14065109,"size":677909603,"categoryP":"video","categoryS":"tv_shows","magnet":"?xt=urn:btih:f41c9ea1b1ebfc64cd3d15bf637a4406486745ac&amp;dn=The+A+word+%282016%29+S01E01+x264+RB58&amp;tr=udp%3A%2F%2Ftracker.leechers-paradise.org%3A6969&amp;tr=udp%3A%2F%2Fzer0day.ch%3A1337&amp;tr=udp%3A%2F%2Fopen.demonii.com%3A1337&amp;tr=udp%3A%2F%2Ftracker.coppersurfer.tk%3A6969&amp;tr=udp%3A%2F%2Fexodus.desync.com%3A6969","seeders":1,"leechers":0,"uploader":"RedBaron58","files":1,"time":1459133354,"description":"The A Word (2016) S01E01 x264 mp4\r\n \nhttp://www.imdb.com/title/tt5311790/\r\n\r\nTrailer:\r\n\r\n\r\nPlease be patient My intial upload speed is limited.\r\nThank you for your kind comments and feedback on my other torrents, your feedback is welcome.\r\n\r\n\r\nAbout the Episode:\r\nThe various generations of the Hughes family, who all love, work and fight like any other clan, \r\nfind they must learn to communicate all over again when the youngest member is diagnosed \r\nwith autism. \r\nThe opening episode of the drama sees the extended family reunite in the Lake District for \r\nJoe's fifth birthday party, but tensions soon rise among Alison, Paul and patriarch Maurice. \r\n \r\nStarring Morven Christie, Lee Ingleby and Christopher Eccleston.\r\n\r\n\r\nI hope you enjoy.\r\n\r\n\r\nTechnical:\r\n\r\nGeneral\r\nComplete name                            : G:The A Work (2016) S01E01 x264 RB58.mp4\r\nFormat                                   : MPEG-4\r\nFormat profile                           : Base Media\r\nCodec ID                                 : isom\r\nFile size                                : 647 MiB\r\nDuration                                 : 59mn 14s\r\nOverall bit rate                         : 1 526 Kbps\r\nWriting application                      : Lavf54.63.104\r\n\r\nVideo\r\nID                                       : 1\r\nFormat                                   : AVC\r\nFormat/Info                              : Advanced Video Codec\r\nFormat profile                           :   \r\nFormat settings, CABAC                   : Yes\r\nFormat settings, ReFrames                : 4 frames\r\nCodec ID                                 : avc1\r\nCodec ID/Info                            : Advanced Video Coding\r\nDuration                                 : 59mn 14s\r\nBit rate                                 : 1 400 Kbps\r\nWidth                                    : 832 pixels\r\nHeight                                   : 468 pixels\r\nDisplay aspect ratio                     : 16:9\r\nFrame rate mode                          : Constant\r\nFrame rate                               : 25.000 fps\r\nColor space                              : YUV\r\nChroma subsampling                       : 4:2:0\r\nBit depth                                : 8 bits\r\nScan type                                : Progressive\r\nBits/(Pixel*Frame)                       : 0.144\r\nStream size                              : 593 MiB (92%)\r\nWriting library                          : x264 core 123 r2189 35cf912\r\nEncoding settings                        : cabac=1 / ref=3 / deblock=1:0:0\r\n\r\nAudio\r\nID                                       : 2\r\nFormat                                   : AAC\r\nFormat/Info                              : Advanced Audio Codec\r\nFormat profile                           : LC\r\nCodec ID                                 : 40\r\nDuration                                 : 59mn 14s\r\nBit rate mode                            : Constant\r\nBit rate                                 : 117 Kbps\r\nChannel(s)                               : 2 channels\r\nChannel positions                        : Front: L R\r\nSampling rate                            : 48.0 KHz\r\nCompression mode                         : Lossy\r\nStream size                              : 49.8 MiB (8%)","torrent":{"xt":"urn:btih:f41c9ea1b1ebfc64cd3d15bf637a4406486745ac","amp;dn":"The+A+word+%282016%29+S01E01+x264+RB58","amp;tr":["udp%3A%2F%2Ftracker.leechers-paradise.org%3A6969","udp%3A%2F%2Fzer0day.ch%3A1337","udp%3A%2F%2Fopen.demonii.com%3A1337","udp%3A%2F%2Ftracker.coppersurfer.tk%3A6969","udp%3A%2F%2Fexodus.desync.com%3A6969"],"infoHash":"f41c9ea1b1ebfc64cd3d15bf637a4406486745ac","infoHashBuffer":{"type":"Buffer","data":[244,28,158,161,177,235,252,100,205,61,21,191,99,122,68,6,72,103,69,172]},"announce":[],"urlList":[]}}